<svg xmlns="http://www.w3.org/2000/svg"  viewBox="0 0 100 100" width="200px" height="200px"><path fill="#fff" d="M70,82H31c-6.6,0-12-5.4-12-12V31c0-6.6,5.4-12,12-12h39c6.6,0,12,5.4,12,12v39 C82,76.6,76.6,82,70,82z"/><path fill="#1f212b" d="M69.994,82.994h-39c-7.18,0-13-5.82-13-13v-39c0-7.18,5.82-13,13-13h39c7.18,0,13,5.82,13,13v39 C82.994,77.174,77.173,82.994,69.994,82.994z M19.994,30.994v39c0,6.075,4.925,11,11,11h39c6.075,0,11-4.925,11-11v-39 c0-6.075-4.925-11-11-11h-39C24.918,19.994,19.994,24.919,19.994,30.994z"/><path fill="#1f212b" d="M67.156,77.994H33.831c-5.985,0-10.837-4.852-10.837-10.837V33.831 c0-5.985,4.852-10.837,10.837-10.837h33.663c0.276,0,0.5,0.224,0.5,0.5s-0.224,0.5-0.5,0.5H33.831 c-5.433,0-9.837,4.404-9.837,9.837v33.325c0,5.433,4.405,9.838,9.838,9.838h33.325c5.433,0,9.837-4.404,9.837-9.837V48.494 c0-0.276,0.224-0.5,0.5-0.5s0.5,0.224,0.5,0.5v18.662C77.994,73.142,73.141,77.994,67.156,77.994z M77.494,45.573 c-0.276,0-0.5-0.224-0.5-0.5v-4c0-0.276,0.224-0.5,0.5-0.5s0.5,0.224,0.5,0.5v4C77.994,45.35,77.77,45.573,77.494,45.573z M77.494,39.573c-0.276,0-0.5-0.224-0.5-0.5v-2c0-0.276,0.224-0.5,0.5-0.5s0.5,0.224,0.5,0.5v2 C77.994,39.35,77.77,39.573,77.494,39.573z"/><path fill="#f15b6c" d="M67.914,58.914L42.086,33.086c-0.375-0.375-0.884-0.586-1.414-0.586H34.5c-1.105,0-2,0.895-2,2 v6.172c0,0.53,0.211,1.039,0.586,1.414l25.828,25.828c0.375,0.375,0.884,0.586,1.414,0.586H66.5c1.105,0,2-0.895,2-2v-6.172 C68.5,59.798,68.289,59.289,67.914,58.914z"/><path fill="#f15b6c" d="M32.5,52.5c0,0,2.5,5.5,6.5,9.5s9.5,6.5,9.5,6.5h-14c-1.105,0-2-0.895-2-2V52.5z"/><path fill="#f15b6c" d="M68.5,48.5c0,0-2.5-5.5-6.5-9.5s-9.5-6.5-9.5-6.5h14c1.105,0,2,0.895,2,2V48.5z"/><path fill="none" stroke="#1f212b" stroke-linecap="round" stroke-linejoin="round" stroke-miterlimit="10" d="M67.914,58.914 L42.086,33.086c-0.375-0.375-0.884-0.586-1.414-0.586H34.5c-1.105,0-2,0.895-2,2v6.172c0,0.53,0.211,1.039,0.586,1.414 l25.828,25.828c0.375,0.375,0.884,0.586,1.414,0.586H66.5c1.105,0,2-0.895,2-2v-6.172C68.5,59.798,68.289,59.289,67.914,58.914z"/><path fill="none" stroke="#1f212b" stroke-linecap="round" stroke-linejoin="round" stroke-miterlimit="10" d="M32.5,52.5 c0,0,2.5,5.5,6.5,9.5s9.5,6.5,9.5,6.5h-14c-1.105,0-2-0.895-2-2V52.5z"/><path fill="none" stroke="#1f212b" stroke-linecap="round" stroke-linejoin="round" stroke-miterlimit="10" d="M68.5,48.5 c0,0-2.5-5.5-6.5-9.5s-9.5-6.5-9.5-6.5h14c1.105,0,2,0.895,2,2V48.5z"/></svg>